<svg width="9" height="15" viewBox="0 0 9 15" fill="none" xmlns="http://www.w3.org/2000/svg">
<path d="M7.50669 14.7255C7.31458 14.726 7.12476 14.6913 6.95118 14.624C6.77761 14.5566 6.62469 14.4583 6.50366 14.3363L0.292537 8.02598C0.103398 7.83779 0 7.60174 0 7.35813C0 7.11452 0.103398 6.87847 0.292537 6.69028L6.72227 0.379938C6.94054 0.165158 7.2542 0.0300911 7.59423 0.00445037C7.93427 -0.0211904 8.27284 0.0646955 8.53545 0.243214C8.79806 0.421732 8.96321 0.67826 8.99456 0.956363C9.02591 1.23447 8.9209 1.51137 8.70262 1.72615L2.95444 7.36339L8.50973 13.0006C8.66698 13.155 8.76687 13.343 8.79758 13.5423C8.82828 13.7417 8.78853 13.9441 8.68301 14.1255C8.57749 14.307 8.41062 14.4599 8.20216 14.5662C7.99369 14.6726 7.75235 14.7278 7.50669 14.7255Z" fill="white"/>
</svg>
