<svg width="24" height="24" viewBox="0 0 24 24" fill="none" xmlns="http://www.w3.org/2000/svg">
<path fill-rule="evenodd" clip-rule="evenodd" d="M16.6778 4.78761L9.83964 11.9819L16.7081 19.208C17.1008 19.6211 17.1007 20.2782 16.6871 20.7125C16.2922 21.104 15.6613 21.0945 15.2779 20.6911L8.41624 13.4794L7 11.9821L8.42313 10.4916C12.9823 5.69535 15.2654 3.29372 15.2724 3.28668C15.6663 2.89623 16.2955 2.90582 16.6779 3.30809C17.0695 3.72017 17.0695 4.37555 16.6778 4.78761Z" fill="#14142B"/>
<mask id="mask0" style="mask-type:alpha" maskUnits="userSpaceOnUse" x="7" y="3" width="10" height="18">
<path fill-rule="evenodd" clip-rule="evenodd" d="M16.6778 4.78761L9.83964 11.9819L16.7081 19.208C17.1008 19.6211 17.1007 20.2782 16.6871 20.7125C16.2922 21.104 15.6613 21.0945 15.2779 20.6911L8.41624 13.4794L7 11.9821L8.42313 10.4916C12.9823 5.69535 15.2654 3.29372 15.2724 3.28668C15.6663 2.89623 16.2955 2.90582 16.6779 3.30809C17.0695 3.72017 17.0695 4.37555 16.6778 4.78761Z" fill="white"/>
</mask>
<g mask="url(#mask0)">
</g>
</svg>
