<svg width="20" height="20" viewBox="0 0 20 20" fill="none" xmlns="http://www.w3.org/2000/svg">
<path d="M15.8984 5H7.22656C5.99687 5 5 5.99687 5 7.22656V15.8984C5 17.1281 5.99687 18.125 7.22656 18.125H15.8984C17.1281 18.125 18.125 17.1281 18.125 15.8984V7.22656C18.125 5.99687 17.1281 5 15.8984 5Z" stroke="black" stroke-linejoin="round"/>
<path d="M14.9805 5L15 4.0625C14.9984 3.48285 14.7674 2.9274 14.3575 2.51753C13.9476 2.10765 13.3922 1.87665 12.8125 1.875H4.375C3.71256 1.87696 3.07781 2.14098 2.6094 2.6094C2.14098 3.07781 1.87696 3.71256 1.875 4.375V12.8125C1.87665 13.3922 2.10765 13.9476 2.51753 14.3575C2.9274 14.7674 3.48285 14.9984 4.0625 15H5" stroke="black" stroke-linecap="round" stroke-linejoin="round"/>
</svg>
