<svg width="30" height="30" viewBox="0 0 30 30" fill="none" xmlns="http://www.w3.org/2000/svg">
<circle cx="15" cy="15" r="15" fill="#F5F7FC"/>
<path fill-rule="evenodd" clip-rule="evenodd" d="M10.2725 9.21283C9.97962 8.91994 9.50475 8.91994 9.21186 9.21283C8.91896 9.50573 8.91896 9.9806 9.21186 10.2735L13.9324 14.9941L9.21186 19.7146C8.91896 20.0075 8.91896 20.4824 9.21186 20.7753C9.50475 21.0682 9.97962 21.0682 10.2725 20.7753L14.9931 16.0547L19.7136 20.7753C20.0065 21.0682 20.4814 21.0682 20.7743 20.7753C21.0672 20.4824 21.0672 20.0075 20.7743 19.7146L16.0537 14.9941L20.7743 10.2735C21.0672 9.9806 21.0672 9.50573 20.7743 9.21283C20.4814 8.91994 20.0065 8.91994 19.7136 9.21283L14.9931 13.9334L10.2725 9.21283Z" fill="black"/>
</svg>
