<svg width="24" height="24" viewBox="0 0 24 24" fill="none" xmlns="http://www.w3.org/2000/svg">
<path fill-rule="evenodd" clip-rule="evenodd" d="M10.5858 12L5.63603 7.05025C5.24551 6.65972 5.24551 6.02656 5.63603 5.63603C6.02656 5.24551 6.65972 5.24551 7.05025 5.63603L12 10.5858L16.9497 5.63603C17.3403 5.24551 17.9734 5.24551 18.364 5.63603C18.7545 6.02656 18.7545 6.65972 18.364 7.05025L13.4142 12L18.364 16.9497C18.7545 17.3403 18.7545 17.9734 18.364 18.364C17.9734 18.7545 17.3403 18.7545 16.9497 18.364L12 13.4142L7.05025 18.364C6.65972 18.7545 6.02656 18.7545 5.63603 18.364C5.24551 17.9734 5.24551 17.3403 5.63603 16.9497L10.5858 12Z" fill="#3C3C43" fill-opacity="0.68"/>
</svg>
