<svg width="24" height="24" viewBox="0 0 24 24" fill="none" xmlns="http://www.w3.org/2000/svg">
<path fill-rule="evenodd" clip-rule="evenodd" d="M15.7188 9.40323C14.7883 9.40323 13.9931 8.82187 13.6742 8.00134H4.25C3.83579 8.00134 3.5 7.66435 3.5 7.24866V7.15457C3.5 6.73887 3.83579 6.40188 4.25 6.40188H13.6742C13.9931 5.58136 14.7883 5 15.7188 5C16.6492 5 17.4444 5.58136 17.7633 6.40188H19.75C20.1642 6.40188 20.5 6.73887 20.5 7.15457V7.24866C20.5 7.66435 20.1642 8.00134 19.75 8.00134H17.7633C17.4444 8.82187 16.6492 9.40323 15.7188 9.40323ZM16.7125 7.20161C16.7125 7.75241 16.2676 8.19892 15.7188 8.19892C15.1699 8.19892 14.725 7.75241 14.725 7.20161C14.725 6.65081 15.1699 6.2043 15.7188 6.2043C16.2676 6.2043 16.7125 6.65081 16.7125 7.20161ZM4.25 15.9987H13.6742C13.9931 15.1781 14.7883 14.5968 15.7188 14.5968C16.6492 14.5968 17.4444 15.1781 17.7633 15.9987H19.75C20.1642 15.9987 20.5 16.3356 20.5 16.7513V16.8454C20.5 17.2611 20.1642 17.5981 19.75 17.5981H17.7633C17.4444 18.4186 16.6492 19 15.7188 19C14.7883 19 13.9931 18.4186 13.6742 17.5981H4.25C3.83579 17.5981 3.5 17.2611 3.5 16.8454V16.7513C3.5 16.3356 3.83579 15.9987 4.25 15.9987ZM16.7125 16.7984C16.7125 17.3492 16.2676 17.7957 15.7188 17.7957C15.1699 17.7957 14.725 17.3492 14.725 16.7984C14.725 16.2476 15.1699 15.8011 15.7188 15.8011C16.2676 15.8011 16.7125 16.2476 16.7125 16.7984ZM19.75 11.2003H10.3258C10.0069 10.3797 9.21172 9.79839 8.28125 9.79839C7.35078 9.79839 6.55562 10.3797 6.23672 11.2003H4.25C3.83579 11.2003 3.5 11.5373 3.5 11.953V12.047C3.5 12.4627 3.83579 12.7997 4.25 12.7997H6.23672C6.55562 13.6203 7.35078 14.2016 8.28125 14.2016C9.21172 14.2016 10.0069 13.6203 10.3258 12.7997H19.75C20.1642 12.7997 20.5 12.4627 20.5 12.047V11.953C20.5 11.5373 20.1642 11.2003 19.75 11.2003ZM9.275 12C9.275 12.5508 8.83008 12.9973 8.28125 12.9973C7.73242 12.9973 7.2875 12.5508 7.2875 12C7.2875 11.4492 7.73242 11.0027 8.28125 11.0027C8.83008 11.0027 9.275 11.4492 9.275 12Z" fill="#F6891F"/>
<mask id="mask0" mask-type="alpha" maskUnits="userSpaceOnUse" x="3" y="5" width="18" height="14">
<path fill-rule="evenodd" clip-rule="evenodd" d="M15.7188 9.40323C14.7883 9.40323 13.9931 8.82187 13.6742 8.00134H4.25C3.83579 8.00134 3.5 7.66435 3.5 7.24866V7.15457C3.5 6.73887 3.83579 6.40188 4.25 6.40188H13.6742C13.9931 5.58136 14.7883 5 15.7188 5C16.6492 5 17.4444 5.58136 17.7633 6.40188H19.75C20.1642 6.40188 20.5 6.73887 20.5 7.15457V7.24866C20.5 7.66435 20.1642 8.00134 19.75 8.00134H17.7633C17.4444 8.82187 16.6492 9.40323 15.7188 9.40323ZM16.7125 7.20161C16.7125 7.75241 16.2676 8.19892 15.7188 8.19892C15.1699 8.19892 14.725 7.75241 14.725 7.20161C14.725 6.65081 15.1699 6.2043 15.7188 6.2043C16.2676 6.2043 16.7125 6.65081 16.7125 7.20161ZM4.25 15.9987H13.6742C13.9931 15.1781 14.7883 14.5968 15.7188 14.5968C16.6492 14.5968 17.4444 15.1781 17.7633 15.9987H19.75C20.1642 15.9987 20.5 16.3356 20.5 16.7513V16.8454C20.5 17.2611 20.1642 17.5981 19.75 17.5981H17.7633C17.4444 18.4186 16.6492 19 15.7188 19C14.7883 19 13.9931 18.4186 13.6742 17.5981H4.25C3.83579 17.5981 3.5 17.2611 3.5 16.8454V16.7513C3.5 16.3356 3.83579 15.9987 4.25 15.9987ZM16.7125 16.7984C16.7125 17.3492 16.2676 17.7957 15.7188 17.7957C15.1699 17.7957 14.725 17.3492 14.725 16.7984C14.725 16.2476 15.1699 15.8011 15.7188 15.8011C16.2676 15.8011 16.7125 16.2476 16.7125 16.7984ZM19.75 11.2003H10.3258C10.0069 10.3797 9.21172 9.79839 8.28125 9.79839C7.35078 9.79839 6.55562 10.3797 6.23672 11.2003H4.25C3.83579 11.2003 3.5 11.5373 3.5 11.953V12.047C3.5 12.4627 3.83579 12.7997 4.25 12.7997H6.23672C6.55562 13.6203 7.35078 14.2016 8.28125 14.2016C9.21172 14.2016 10.0069 13.6203 10.3258 12.7997H19.75C20.1642 12.7997 20.5 12.4627 20.5 12.047V11.953C20.5 11.5373 20.1642 11.2003 19.75 11.2003ZM9.275 12C9.275 12.5508 8.83008 12.9973 8.28125 12.9973C7.73242 12.9973 7.2875 12.5508 7.2875 12C7.2875 11.4492 7.73242 11.0027 8.28125 11.0027C8.83008 11.0027 9.275 11.4492 9.275 12Z" fill="white"/>
</mask>
<g mask="url(#mask0)">
</g>
</svg>
