<svg width="24" height="24" viewBox="0 0 24 24" fill="none" xmlns="http://www.w3.org/2000/svg">
<path d="M15.6517 4.71155C14.2135 4.87467 12.8857 5.56138 11.9212 6.6408C10.9567 7.72022 10.423 9.11687 10.4219 10.5645V10.9372C11.0613 10.1666 11.8597 9.54342 12.7624 9.11025C13.665 8.67709 14.6507 8.44421 15.6517 8.42757V10.394C15.6518 10.5339 15.6912 10.6709 15.7654 10.7895C15.8397 10.908 15.9458 11.0032 16.0716 11.0643C16.1974 11.1254 16.3379 11.1498 16.4769 11.1347C16.616 11.1197 16.748 11.0658 16.8579 10.9793L21.7256 7.1338C21.811 7.06662 21.88 6.98093 21.9275 6.88319C21.9749 6.78545 21.9996 6.67821 21.9996 6.56956C21.9996 6.4609 21.9749 6.35366 21.9275 6.25592C21.88 6.15819 21.811 6.0725 21.7256 6.00531L16.8579 2.16086C16.7482 2.07396 16.6162 2.01975 16.4771 2.00446C16.338 1.98916 16.1974 2.01341 16.0715 2.07442C15.9455 2.13542 15.8393 2.23071 15.7651 2.34934C15.6908 2.46798 15.6515 2.60515 15.6517 2.74511V4.71155Z" stroke="#F6891F" stroke-width="1.5" stroke-linecap="round" stroke-linejoin="round"/>
<path d="M20.9448 12.5251V16.7358C20.9448 18.1318 20.3904 19.4706 19.4035 20.4577C18.4166 21.4448 17.0781 21.9993 15.6824 21.9993H7.26246C5.86677 21.9993 4.52824 21.4448 3.54134 20.4577C2.55444 19.4706 2 18.1318 2 16.7358V8.31427C2 6.9183 2.55444 5.57952 3.54134 4.59242C4.52824 3.60533 5.86677 3.05078 7.26246 3.05078H10.4199" stroke="#6E7191" stroke-width="1.5" stroke-linecap="round" stroke-linejoin="round"/>
</svg>
