<svg width="14" height="14" viewBox="0 0 14 14" fill="none" xmlns="http://www.w3.org/2000/svg">
<path d="M11.5003 2.50415L9.167 0.170803C9.16689 0.170693 9.16678 0.170639 9.1667 0.170529C9.15319 0.157049 9.13903 0.144279 9.12426 0.132166C9.11751 0.126615 9.1104 0.121803 9.10345 0.116607C9.09517 0.1104 9.08705 0.103975 9.07841 0.0982051C9.07009 0.0926543 9.06148 0.0878418 9.05295 0.0827559C9.04513 0.0780801 9.0375 0.0731855 9.02946 0.0688652C9.02077 0.0642168 9.01185 0.0602793 9.00296 0.0560957C8.99457 0.0521309 8.98631 0.0479473 8.97773 0.0443652C8.96911 0.0408105 8.96031 0.0379121 8.95156 0.0347949C8.94234 0.0314863 8.93326 0.027959 8.92386 0.0251152C8.91511 0.0224629 8.90619 0.0205215 8.89736 0.0183066C8.88777 0.015873 8.87828 0.0131934 8.86852 0.011252C8.85826 0.00922851 8.84793 0.00799805 8.83762 0.00652148C8.82911 0.00531836 8.82075 0.00367773 8.8121 0.00283008C8.77382 -0.000943359 8.73524 -0.000943359 8.69696 0.00283008C8.68835 0.00367773 8.67998 0.00529102 8.67145 0.00652148C8.66114 0.00799805 8.65078 0.00920117 8.64055 0.011252C8.63076 0.0131934 8.6213 0.015873 8.6117 0.0183066C8.60284 0.0205215 8.59396 0.0224629 8.58521 0.0251152C8.5758 0.027959 8.5667 0.0314863 8.55751 0.0347949C8.54876 0.0379395 8.53995 0.0408105 8.53134 0.0443652C8.52273 0.0479199 8.5145 0.0521309 8.5061 0.0560957C8.49724 0.0602793 8.4883 0.0642168 8.47961 0.0688652C8.47157 0.0731855 8.46394 0.0780801 8.45612 0.0827559C8.44759 0.0878418 8.43897 0.0926543 8.43066 0.0982051C8.42202 0.103975 8.41392 0.1104 8.40561 0.116607C8.39867 0.121803 8.39156 0.126615 8.3848 0.132166C8.37004 0.144279 8.35585 0.157049 8.34237 0.170529C8.34226 0.170639 8.34215 0.170693 8.34207 0.170803L6.00874 2.50413C5.78094 2.73193 5.78094 3.10129 6.00874 3.32909C6.23654 3.55689 6.6059 3.55689 6.8337 3.32909L8.17122 1.99157V8.74996C8.17122 9.07212 8.43238 9.33328 8.75455 9.33328C9.07671 9.33328 9.33787 9.07212 9.33787 8.74996V1.9916L10.6754 3.32912C10.9032 3.55692 11.2726 3.55692 11.5004 3.32912C11.7281 3.10129 11.7281 2.73196 11.5003 2.50415Z" fill="#14142B"/>
<path d="M7.17345 10.6707L5.83593 12.0082V5.24983C5.83593 4.92766 5.57476 4.6665 5.2526 4.6665C4.93044 4.6665 4.66927 4.92766 4.66927 5.24983V12.0082L3.33175 10.6707C3.10395 10.4429 2.73459 10.4429 2.50679 10.6707C2.27899 10.8985 2.27899 11.2678 2.50679 11.4956L4.84012 13.829C4.84023 13.8291 4.84034 13.8291 4.84045 13.8293C4.85393 13.8427 4.86812 13.8555 4.88286 13.8676C4.88961 13.8731 4.89675 13.878 4.90369 13.8832C4.91198 13.8894 4.9201 13.8958 4.92871 13.9016C4.93703 13.9071 4.94564 13.9119 4.95417 13.917C4.96199 13.9217 4.96962 13.9266 4.97766 13.9309C4.98635 13.9355 4.99529 13.9395 5.00418 13.9437C5.01255 13.9476 5.02081 13.9518 5.02939 13.9554C5.03801 13.9589 5.04681 13.9618 5.05556 13.9649C5.06478 13.9682 5.07385 13.9718 5.08326 13.9746C5.09201 13.9773 5.1009 13.9792 5.10976 13.9814C5.11935 13.9839 5.12884 13.9865 5.13863 13.9885C5.14889 13.9905 5.15922 13.9917 5.16953 13.9932C5.17803 13.9944 5.18643 13.996 5.19504 13.9969C5.23332 14.0006 5.2719 14.0006 5.31019 13.9969C5.3188 13.996 5.32717 13.9944 5.3357 13.9932C5.34601 13.9917 5.35637 13.9905 5.3666 13.9885C5.37639 13.9865 5.38585 13.9838 5.39544 13.9814C5.4043 13.9792 5.41319 13.9772 5.42194 13.9746C5.43135 13.9717 5.44045 13.9682 5.44964 13.9649C5.45839 13.9618 5.46719 13.9589 5.47581 13.9553C5.48439 13.9518 5.49262 13.9476 5.50099 13.9436C5.50988 13.9395 5.51885 13.9355 5.52754 13.9308C5.53555 13.9265 5.54318 13.9217 5.55098 13.917C5.55951 13.9119 5.56815 13.9071 5.57646 13.9015C5.58507 13.8958 5.59317 13.8894 5.60143 13.8832C5.6084 13.878 5.61553 13.8731 5.62232 13.8676C5.63694 13.8556 5.65103 13.8429 5.66443 13.8295C5.66464 13.8293 5.66486 13.8291 5.66505 13.8289L7.99838 11.4956C8.22619 11.2678 8.22619 10.8984 7.99838 10.6706C7.77058 10.4428 7.40128 10.4429 7.17345 10.6707Z" fill="#14142B"/>
</svg>
