<svg width="210" height="30" viewBox="0 0 210 30" fill="none" xmlns="http://www.w3.org/2000/svg">
<path d="M154.548 10.6917C154.628 10.6917 154.707 10.6119 154.707 10.5321V7.97891C154.707 7.89912 154.628 7.81934 154.548 7.81934H143.058C142.859 7.81934 142.659 7.85923 142.5 7.93902C142.34 8.0188 142.181 8.09859 142.061 8.25817C141.941 8.37785 141.822 8.53742 141.782 8.697C141.702 8.85657 141.662 9.05604 141.662 9.25551V18.4709C141.662 19.0693 141.782 19.6677 142.021 20.2263C142.46 21.1039 143.218 21.7422 144.175 22.0215C144.574 22.1411 144.973 22.2209 145.372 22.2209H154.588C154.667 22.2209 154.747 22.1411 154.747 22.0614V19.5481C154.747 19.4683 154.667 19.3885 154.588 19.3885H145.412C144.973 19.4284 144.574 19.1491 144.534 18.7103C144.534 18.6305 144.534 18.5906 144.534 18.5108V16.4763H153.471C153.55 16.4763 153.63 16.3965 153.63 16.3167V13.7236C153.63 13.6438 153.55 13.564 153.471 13.564H144.574V10.6518L154.548 10.6917Z" fill="#6D3815"/>
<path d="M94.9867 22.261C94.9069 22.261 94.8271 22.1812 94.8271 22.1014V16.4764H86.1702V22.1014C86.1702 22.1812 86.0904 22.261 86.0106 22.261H83.4574C83.3776 22.261 83.2979 22.1812 83.2979 22.1014V8.01895C83.2979 7.93916 83.3776 7.85938 83.4574 7.85938H86.0106C86.0904 7.85938 86.1702 7.93916 86.1702 8.01895V13.644H94.8271V8.01895C94.8271 7.93916 94.9069 7.85938 94.9867 7.85938H97.5399C97.6197 7.85938 97.6995 7.93916 97.6995 8.01895V22.1014C97.6995 22.1812 97.6197 22.261 97.5399 22.261H94.9867Z" fill="#6D3815"/>
<path d="M130.333 22.4208C130.094 22.4208 129.854 22.3809 129.655 22.2612C129.455 22.1415 129.256 21.9421 129.136 21.7426L124.867 14.2426V22.1017C124.867 22.1814 124.788 22.2612 124.708 22.2612H122.155C122.075 22.2612 121.995 22.1814 121.995 22.1017V9.09633C121.995 8.45803 122.434 7.89952 123.032 7.70005C123.152 7.66016 123.272 7.66016 123.391 7.66016H123.511C123.671 7.66016 123.79 7.70005 123.95 7.77984C124.109 7.81973 124.229 7.89952 124.349 8.0192C124.469 8.13888 124.548 8.25856 124.628 8.37824L130.293 18.2719L135.958 8.37824C136.117 8.09899 136.357 7.89952 136.636 7.77984C136.796 7.70005 136.995 7.66016 137.155 7.66016C137.274 7.66016 137.434 7.66016 137.554 7.70005C137.873 7.77984 138.112 7.97931 138.312 8.21867C138.511 8.45803 138.591 8.77718 138.591 9.09633V22.1017C138.591 22.1814 138.511 22.2612 138.431 22.2612H135.878C135.798 22.2612 135.719 22.1814 135.719 22.1017V14.2426L131.45 21.7426C131.33 21.982 131.131 22.1415 130.931 22.2612C130.852 22.3809 130.612 22.4208 130.333 22.4208Z" fill="#6D3815"/>
<path d="M157.938 22.261C157.859 22.261 157.779 22.1812 157.779 22.1014V19.5482C157.779 19.4684 157.859 19.3886 157.938 19.3886H167.274C167.673 19.4285 168.032 19.269 168.311 18.9897C168.55 18.7104 168.71 18.3115 168.67 17.9126C168.67 17.7131 168.63 17.5136 168.55 17.3142C168.47 17.1546 168.391 16.995 168.271 16.8753C168.151 16.7557 167.992 16.636 167.832 16.5562C167.633 16.4764 167.433 16.4365 167.234 16.4365H161.848C161.369 16.4365 160.931 16.3567 160.452 16.1972C159.375 15.878 158.497 15.1599 158.018 14.1626C157.739 13.5243 157.579 12.8461 157.619 12.1679C157.619 11.4897 157.739 10.8115 158.018 10.1732C158.497 9.17586 159.375 8.41789 160.452 8.09874C160.891 7.93916 161.369 7.85938 161.848 7.85938H170.545C170.625 7.85938 170.704 7.93916 170.704 8.01895V10.5722C170.704 10.6519 170.625 10.7317 170.545 10.7317H161.888C161.489 10.6918 161.13 10.8514 160.851 11.1307C160.571 11.4099 160.452 11.8089 160.492 12.2078C160.452 12.6067 160.611 12.9658 160.851 13.2849C161.13 13.5642 161.489 13.7237 161.888 13.6839H167.274C167.593 13.6839 167.912 13.7237 168.191 13.8035C168.869 13.9631 169.508 14.2823 170.026 14.7211C170.306 14.9604 170.585 15.2397 170.784 15.519C171.024 15.8381 171.183 16.237 171.303 16.636C171.423 17.0748 171.502 17.5535 171.502 18.0323C171.502 18.511 171.423 18.9897 171.303 19.4285C171.183 19.8275 171.024 20.1865 170.784 20.5456C170.585 20.8647 170.306 21.144 170.026 21.3833C169.747 21.5828 169.428 21.7823 169.109 21.9418C168.51 22.2211 167.912 22.3408 167.274 22.3408L157.938 22.261Z" fill="#6D3815"/>
<path d="M106.875 22.2599L106.755 22.1402V19.5073L106.875 19.3876H115.333C115.412 19.3876 115.492 19.3078 115.492 19.2679V12.1668L115.452 12.0472L109.947 6.54185L109.827 6.50195L109.708 6.54185L104.202 12.0472L104.162 12.1668V22.1402L104.043 22.2599H101.37L101.29 22.1402V10.97L101.33 10.8902L109.149 3.0711C109.309 2.87163 109.548 2.79185 109.787 2.75195C110.027 2.75195 110.266 2.87163 110.386 3.03121C110.785 3.47004 118.165 10.8105 118.205 10.8902L118.245 10.97V22.1402L118.165 22.2599H106.875Z" fill="#6D3815"/>
<path d="M37.5797 22.2606C37.3005 22.2606 37.0611 22.2207 36.7818 22.1808C36.5026 22.101 36.2233 22.0212 35.9441 21.9016C35.6648 21.7819 35.3856 21.6223 35.1462 21.4228C34.9068 21.2234 34.6675 20.984 34.468 20.7048C34.2685 20.4255 34.109 20.0665 33.9893 19.7473C33.8696 19.3484 33.7898 18.9494 33.8297 18.5106V11.609C33.8297 11.3298 33.8696 11.0904 33.9095 10.8111C33.9494 10.5319 34.0691 10.2526 34.1888 9.97337C34.3084 9.69412 34.468 9.41486 34.6675 9.1755C34.8669 8.93614 35.1063 8.69678 35.3856 8.49731C35.6648 8.29784 35.984 8.13827 36.343 8.01858C36.7419 7.8989 37.1409 7.81912 37.5797 7.85901H46.7951C46.8749 7.85901 46.9547 7.9388 46.9547 8.01858V10.5718C46.9547 10.6516 46.8749 10.7314 46.7951 10.7314H37.6196C37.3802 10.7314 37.1409 10.8111 36.9414 10.9707C36.7818 11.1702 36.7021 11.4095 36.7021 11.6489V18.5505C36.6622 18.9893 36.9813 19.3883 37.4201 19.4282C37.4999 19.4282 37.5398 19.4282 37.6196 19.4282H46.835C46.9148 19.4282 46.9946 19.5079 46.9946 19.5877V22.1409C46.9946 22.2207 46.9148 22.3005 46.835 22.3005L37.5797 22.2606Z" fill="#6D3815"/>
<path d="M62.7927 10.6917C62.8725 10.6917 62.9523 10.6119 62.9523 10.5321V7.97891C62.9523 7.89912 62.8725 7.81934 62.7927 7.81934H51.3034C51.1039 7.81934 50.9044 7.85923 50.7448 7.93902C50.5853 8.0188 50.4257 8.09859 50.306 8.25817C50.1863 8.37785 50.0667 8.53742 49.9869 8.697C49.9071 8.85657 49.8672 9.05604 49.8672 9.25551V18.4709C49.8672 19.0693 49.9869 19.6677 50.2262 20.2263C50.6651 21.1039 51.423 21.7422 52.3805 22.0215C52.7794 22.1411 53.1784 22.2209 53.5773 22.2209H62.7927C62.8725 22.2209 62.9523 22.1411 62.9523 22.0614V19.5481C62.9523 19.4683 62.8725 19.3885 62.7927 19.3885H53.6172C53.1784 19.4284 52.7794 19.1491 52.7395 18.7103C52.7395 18.6305 52.7395 18.5906 52.7395 18.5108V16.4763H61.6757C61.7555 16.4763 61.8353 16.3965 61.8353 16.3167V13.7236C61.8353 13.6438 61.7555 13.564 61.6757 13.564H52.7395V10.6518L62.7927 10.6917Z" fill="#6D3815"/>
<path d="M78.87 22.4208C78.6705 22.4208 78.511 22.3809 78.3514 22.341C78.1519 22.2612 77.9923 22.1416 77.8727 22.0219L68.8168 12.5272V22.1017C68.8168 22.1814 68.7769 22.2612 68.6971 22.2612H66.144C66.0642 22.2612 65.9844 22.2213 65.9844 22.1416V9.09633C65.9844 8.81707 66.0642 8.53782 66.2237 8.29846C66.3833 8.05909 66.5828 7.89952 66.862 7.77984C67.0216 7.70005 67.2211 7.66016 67.4205 7.66016C67.8195 7.66016 68.1785 7.81973 68.4179 8.09899L77.4737 17.5538V7.97931C77.4737 7.89952 77.5535 7.81973 77.6333 7.81973H80.1865C80.2663 7.81973 80.3461 7.85963 80.3461 7.93941V20.9447C80.3461 21.1442 80.3062 21.3437 80.2264 21.5033C80.1466 21.6628 80.0668 21.8224 79.9072 21.9421C79.7876 22.0618 79.628 22.1814 79.4684 22.2612C79.2689 22.3809 79.0695 22.4208 78.87 22.4208Z" fill="#6D3815"/>
<path d="M0 14.9202L13.883 28.8431C16.5559 25.0532 17.3936 20.8644 15.9176 17.3138C13.9229 12.6463 9.93351 9.29521 11.1303 3.75C5.30585 9.61436 0 14.9202 0 14.9202Z" fill="#6D3815"/>
<path d="M14.7207 11.1702C15.6782 13.2846 22.6197 20.9043 15.2792 29.9601L30.3191 14.9601L15.2792 0C15.2792 0 10.2925 3.75 14.7207 11.1702Z" fill="#F5881F"/>
<path d="M208.603 22.4208C208.404 22.4208 208.244 22.3809 208.085 22.341C207.885 22.2612 207.726 22.1416 207.606 22.0219L198.55 12.5272V22.1017C198.55 22.1814 198.47 22.2612 198.39 22.2612H195.837C195.758 22.2612 195.678 22.1814 195.678 22.1017V9.09633C195.678 8.81707 195.758 8.53782 195.917 8.29846C196.077 8.05909 196.276 7.89952 196.555 7.77984C196.715 7.70005 196.914 7.66016 197.114 7.66016C197.194 7.66016 197.313 7.66016 197.393 7.70005C197.672 7.73994 197.912 7.89952 198.111 8.09899L207.167 17.5538V7.97931C207.167 7.89952 207.247 7.81973 207.287 7.81973H209.84C209.92 7.81973 210 7.89952 210 7.97931V20.9846C210 21.1841 209.96 21.3836 209.88 21.5431C209.72 21.9022 209.481 22.1416 209.122 22.3011C208.962 22.3809 208.763 22.4208 208.603 22.4208Z" fill="#F5881F"/>
<path d="M192.486 9.09633C192.486 8.45803 192.047 7.89952 191.449 7.70005C191.329 7.66016 191.21 7.66016 191.05 7.66016C190.851 7.66016 190.691 7.70005 190.531 7.77984C190.252 7.89952 190.013 8.09899 189.853 8.37824L184.188 18.2719L178.484 8.37824C178.404 8.25856 178.324 8.13888 178.204 8.0192C178.085 7.93941 177.965 7.85963 177.805 7.77984C177.646 7.73994 177.526 7.70005 177.367 7.70005H177.247C177.127 7.70005 177.008 7.70005 176.888 7.73994C176.569 7.81973 176.329 8.0192 176.13 8.25856C175.97 8.49792 175.851 8.81707 175.851 9.09633C175.851 9.21601 175.851 9.2958 175.89 9.41548L178.683 14.3224V14.2825L182.952 21.7825C183.071 21.982 183.231 22.1814 183.47 22.3011C183.67 22.4208 183.909 22.4607 184.148 22.5006C184.388 22.5006 184.627 22.4208 184.867 22.341C185.066 22.2213 185.265 22.0219 185.385 21.8224L185.784 21.1043L192.446 9.33569C192.486 9.21601 192.486 9.17611 192.486 9.09633Z" fill="#F5881F"/>
<path d="M178.883 19.3887H175.971C175.891 19.3887 175.812 19.4286 175.812 19.5084V22.0616C175.812 22.1413 175.891 22.2211 175.971 22.2211H178.883V19.3887Z" fill="#F5881F"/>
</svg>
